<svg width="80" height="80" fill="none" xmlns="http://www.w3.org/2000/svg"><path d="M31.667 31.083v17.834c0 1.277.583 2.25 1.75 2.916 1.166.667 2.305.611 3.416-.166l13.834-8.834c1.055-.666 1.583-1.61 1.583-2.833 0-1.222-.528-2.167-1.583-2.833l-13.834-8.834c-1.11-.777-2.25-.833-3.416-.166-1.167.666-1.75 1.639-1.75 2.916zM40 73.333c-4.611 0-8.945-.875-13-2.626-4.056-1.75-7.583-4.124-10.583-7.124S11.042 57.056 9.293 53c-1.75-4.056-2.626-8.389-2.626-13 0-4.611.875-8.944 2.626-13 1.75-4.055 4.124-7.583 7.124-10.583S22.944 11.04 27 9.29c4.055-1.749 8.389-2.623 13-2.623 4.611 0 8.944.874 13 2.623 4.056 1.751 7.583 4.127 10.583 7.127S68.958 22.944 70.707 27c1.75 4.056 2.626 8.389 2.626 13 0 4.611-.875 8.944-2.626 13-1.75 4.056-4.124 7.583-7.124 10.583S57.056 68.958 53 70.707c-4.056 1.75-8.389 2.626-13 2.626z" fill="#fff"/></svg>