<svg width="109" height="30" fill="none" xmlns="http://www.w3.org/2000/svg"><path fill-rule="evenodd" clip-rule="evenodd" d="M102.112 30l-3.628-14.422c-.438-1.73-.727-3.461-1.016-5.048h-.147c-.289 1.731-.435 3.318-.87 5.192L92.82 30h-6.242L94.853.002h4.936L108.5 30h-6.388zM6.887.002l3.63 14.422c.58 1.73.725 3.462 1.015 5.047h.146c.29-1.73.435-3.462.87-5.192L16.179.002h6.242L14.146 30H9.21L.5.002h6.387zm20.031 0h5.952V30h-5.952V.002zm39.631 0l3.047 17.74L72.064.002h7.984L83.096 30H77L75.548 8.367l-1.016 7.355L72.064 30h-4.645l-2.903-14.422-1.017-6.634v-.577h-.145L62.484 30h-6.389L58.71.002h7.84zm-18.872 0c-1.016.721-1.74 2.018-2.322 3.316-1.596 3.606.145 6.49 1.596 9.086.146.289.438.721.581 1.154 3.34 5.48 4.5 9.518 2.179 15.286L49.13 30h-7.259c.871-.722 1.741-1.73 2.177-2.885 1.743-3.894-.29-7.499-2.177-11.106-2.176-4.182-4.5-8.508-2.032-14.421.146-.577.727-1.587.727-1.587h7.111v.002z" fill="#fff"/></svg>