<svg width="46" height="35" fill="none" xmlns="http://www.w3.org/2000/svg"><rect y=".5" width="46" height="34" rx="10" fill="#5DB7DE"/><path d="M10.78 13.491c.364-.07.763-.121 1.196-.156.442-.043.88-.065 1.313-.065.45 0 .901.039 1.352.117.46.07.871.217 1.235.442.364.217.659.524.884.923.234.39.351.901.351 1.534 0 .572-.1 1.057-.299 1.456a2.8 2.8 0 01-.793.962c-.33.251-.706.433-1.131.546a4.95 4.95 0 01-1.3.169h-.507l-.312-.026a2.195 2.195 0 01-.208-.026V22.5H10.78v-9.009zm2.652 1.313c-.173 0-.338.009-.494.026a3.193 3.193 0 00-.377.039v2.951c.035.009.087.017.156.026l.221.026h.39c.234 0 .464-.022.689-.065.234-.043.442-.121.624-.234.182-.121.325-.286.429-.494.113-.208.169-.481.169-.819 0-.286-.052-.52-.156-.702a1.24 1.24 0 00-.416-.455 1.532 1.532 0 00-.572-.234 3.375 3.375 0 00-.663-.065zM19.52 13.4a9.48 9.48 0 01.61-.065 18.863 18.863 0 011.418-.052c.234-.009.442-.013.624-.013.805 0 1.494.113 2.066.338.573.225 1.036.542 1.392.949.355.407.615.893.78 1.456a6.61 6.61 0 01.247 1.859 6.74 6.74 0 01-.235 1.781 4.03 4.03 0 01-.78 1.521c-.363.442-.845.797-1.442 1.066-.59.269-1.322.403-2.197.403-.14 0-.326-.004-.56-.013a23.799 23.799 0 01-.715-.039 17.247 17.247 0 01-.702-.039 4.87 4.87 0 01-.506-.039V13.4zm2.794 1.456c-.19 0-.385.004-.584.013a3.658 3.658 0 00-.43.039v6.097c.035.009.091.017.17.026.086 0 .177.004.273.013.095 0 .186.004.273.013h.195c.502 0 .918-.087 1.248-.26.338-.182.602-.42.793-.715.199-.295.338-.633.416-1.014.078-.39.117-.789.117-1.196 0-.355-.035-.71-.105-1.066a2.61 2.61 0 00-.39-.975 2.105 2.105 0 00-.753-.702c-.321-.182-.729-.273-1.223-.273zm6.922-1.456h5.395v1.586h-3.614v2.249h3.328v1.586h-3.328V22.5h-1.78v-9.1z" fill="#fff"/></svg>